# xmcd
#
# Track frame offsets:
# 150
# 14411
# 29643
# 46862
# 62431
# 78643
# 90972
# 105801
# 118122
# 137794
# 152803
# 166096
# 181497
# 194382
# 211080
# 232605
#
# Disc length: 3350 seconds
#
# Revision: 0
# Processed by: cddbd v1.4PL0 Copyright (c) Steve Scherf et al.
# Submitted via: Audion 3.0.2 (http://www.panic.com/audion/)
#
DISCID=bf0d1410
DTITLE=Stacy - 2003 MIX 2
DYEAR=1900
DGENRE=
TTITLE0=b
TTITLE1=b
TTITLE2=b
TTITLE3=b
TTITLE4=b
TTITLE5=b
TTITLE6=b
TTITLE7=b
TTITLE8=b
TTITLE9=b
TTITLE10=b
TTITLE11=b
TTITLE12=b
TTITLE13=b
TTITLE14=b
TTITLE15=b
EXTD=
EXTT0=
EXTT1=
EXTT2=
EXTT3=
EXTT4=
EXTT5=
EXTT6=
EXTT7=
EXTT8=
EXTT9=
EXTT10=
EXTT11=
EXTT12=
EXTT13=
EXTT14=
EXTT15=
PLAYORDER=
